<svg width="300" height="146" viewBox="0 0 300 146" fill="none" xmlns="http://www.w3.org/2000/svg">
<rect width="300" height="146" fill="#212529"/>
<g filter="url(#filter0_d_101_194)">
<path d="M53.5769 46.3172L76 60.2192V85.7808L53.5769 99.6828L32 85.7808V60.2192L53.5769 46.3172Z" fill="white"/>
<path d="M53.5769 46.3172L76 60.2192V85.7808L53.5769 99.6828L32 85.7808V60.2192L53.5769 46.3172Z" stroke="white" stroke-width="2"/>
</g>
<path d="M109.736 64.5262H101.384V87.3862H97.91V64.5262H89.54V61.5922H109.736V64.5262ZM111.877 72.8062C112.453 71.5582 113.161 70.5862 114.001 69.8902C114.841 69.1822 115.867 68.8282 117.079 68.8282C117.463 68.8282 117.829 68.8702 118.177 68.9542C118.537 69.0382 118.855 69.1702 119.131 69.3502L118.897 71.7442C118.825 72.0442 118.645 72.1942 118.357 72.1942C118.189 72.1942 117.943 72.1582 117.619 72.0862C117.295 72.0142 116.929 71.9782 116.521 71.9782C115.945 71.9782 115.429 72.0622 114.973 72.2302C114.529 72.3982 114.127 72.6502 113.767 72.9862C113.419 73.3102 113.101 73.7182 112.813 74.2102C112.537 74.6902 112.285 75.2422 112.057 75.8662V87.3862H108.835V69.1522H110.671C111.019 69.1522 111.259 69.2182 111.391 69.3502C111.523 69.4822 111.613 69.7102 111.661 70.0342L111.877 72.8062ZM131.549 79.1782C130.073 79.2262 128.813 79.3462 127.769 79.5382C126.737 79.7182 125.891 79.9582 125.231 80.2582C124.583 80.5582 124.109 80.9122 123.809 81.3202C123.521 81.7282 123.377 82.1842 123.377 82.6882C123.377 83.1682 123.455 83.5822 123.611 83.9302C123.767 84.2782 123.977 84.5662 124.241 84.7942C124.517 85.0102 124.835 85.1722 125.195 85.2802C125.567 85.3762 125.963 85.4242 126.383 85.4242C126.947 85.4242 127.463 85.3702 127.931 85.2622C128.399 85.1422 128.837 84.9742 129.245 84.7582C129.665 84.5422 130.061 84.2842 130.433 83.9842C130.817 83.6842 131.189 83.3422 131.549 82.9582V79.1782ZM121.199 71.7262C122.207 70.7542 123.293 70.0282 124.457 69.5482C125.621 69.0682 126.911 68.8282 128.327 68.8282C129.347 68.8282 130.253 68.9962 131.045 69.3322C131.837 69.6682 132.503 70.1362 133.043 70.7362C133.583 71.3362 133.991 72.0622 134.267 72.9142C134.543 73.7662 134.681 74.7022 134.681 75.7222V87.3862H133.259C132.947 87.3862 132.707 87.3382 132.539 87.2422C132.371 87.1342 132.239 86.9302 132.143 86.6302L131.783 84.9022C131.303 85.3462 130.835 85.7422 130.379 86.0902C129.923 86.4262 129.443 86.7142 128.939 86.9542C128.435 87.1822 127.895 87.3562 127.319 87.4762C126.755 87.6082 126.125 87.6742 125.429 87.6742C124.721 87.6742 124.055 87.5782 123.431 87.3862C122.807 87.1822 122.261 86.8822 121.793 86.4862C121.337 86.0902 120.971 85.5922 120.695 84.9922C120.431 84.3802 120.299 83.6602 120.299 82.8322C120.299 82.1122 120.497 81.4222 120.893 80.7622C121.289 80.0902 121.931 79.4962 122.819 78.9802C123.707 78.4642 124.865 78.0442 126.293 77.7202C127.721 77.3842 129.473 77.1922 131.549 77.1442V75.7222C131.549 74.3062 131.243 73.2382 130.631 72.5182C130.019 71.7862 129.125 71.4202 127.949 71.4202C127.157 71.4202 126.491 71.5222 125.951 71.7262C125.423 71.9182 124.961 72.1402 124.565 72.3922C124.181 72.6322 123.845 72.8542 123.557 73.0582C123.281 73.2502 123.005 73.3462 122.729 73.3462C122.513 73.3462 122.327 73.2922 122.171 73.1842C122.015 73.0642 121.883 72.9202 121.775 72.7522L121.199 71.7262ZM151.441 73.4902C150.841 72.6862 150.193 72.1282 149.497 71.8162C148.801 71.4922 148.021 71.3302 147.157 71.3302C145.465 71.3302 144.163 71.9362 143.251 73.1482C142.339 74.3602 141.883 76.0882 141.883 78.3322C141.883 79.5202 141.985 80.5402 142.189 81.3922C142.393 82.2322 142.693 82.9282 143.089 83.4802C143.485 84.0202 143.971 84.4162 144.547 84.6682C145.123 84.9202 145.777 85.0462 146.509 85.0462C147.565 85.0462 148.483 84.8062 149.263 84.3262C150.055 83.8462 150.781 83.1682 151.441 82.2922V73.4902ZM154.645 60.8722V87.3862H152.737C152.281 87.3862 151.993 87.1642 151.873 86.7202L151.585 84.5062C150.805 85.4422 149.917 86.1982 148.921 86.7742C147.925 87.3502 146.773 87.6382 145.465 87.6382C144.421 87.6382 143.473 87.4402 142.621 87.0442C141.769 86.6362 141.043 86.0422 140.443 85.2622C139.843 84.4822 139.381 83.5102 139.057 82.3462C138.733 81.1822 138.571 79.8442 138.571 78.3322C138.571 76.9882 138.751 75.7402 139.111 74.5882C139.471 73.4242 139.987 72.4162 140.659 71.5642C141.331 70.7122 142.153 70.0462 143.125 69.5662C144.109 69.0742 145.213 68.8282 146.437 68.8282C147.553 68.8282 148.507 69.0202 149.299 69.4042C150.103 69.7762 150.817 70.2982 151.441 70.9702V60.8722H154.645ZM171.91 76.2802C171.91 75.5362 171.802 74.8582 171.586 74.2462C171.382 73.6222 171.076 73.0882 170.668 72.6442C170.272 72.1882 169.786 71.8402 169.21 71.6002C168.634 71.3482 167.98 71.2222 167.248 71.2222C165.712 71.2222 164.494 71.6722 163.594 72.5722C162.706 73.4602 162.154 74.6962 161.938 76.2802H171.91ZM174.502 84.8302C174.106 85.3102 173.632 85.7302 173.08 86.0902C172.528 86.4382 171.934 86.7262 171.298 86.9542C170.674 87.1822 170.026 87.3502 169.354 87.4582C168.682 87.5782 168.016 87.6382 167.356 87.6382C166.096 87.6382 164.932 87.4282 163.864 87.0082C162.808 86.5762 161.89 85.9522 161.11 85.1362C160.342 84.3082 159.742 83.2882 159.31 82.0762C158.878 80.8642 158.662 79.4722 158.662 77.9002C158.662 76.6282 158.854 75.4402 159.238 74.3362C159.634 73.2322 160.198 72.2782 160.93 71.4742C161.662 70.6582 162.556 70.0222 163.612 69.5662C164.668 69.0982 165.856 68.8642 167.176 68.8642C168.268 68.8642 169.276 69.0502 170.2 69.4222C171.136 69.7822 171.94 70.3102 172.612 71.0062C173.296 71.6902 173.83 72.5422 174.214 73.5622C174.598 74.5702 174.79 75.7222 174.79 77.0182C174.79 77.5222 174.736 77.8582 174.628 78.0262C174.52 78.1942 174.316 78.2782 174.016 78.2782H161.83C161.866 79.4302 162.022 80.4322 162.298 81.2842C162.586 82.1362 162.982 82.8502 163.486 83.4262C163.99 83.9902 164.59 84.4162 165.286 84.7042C165.982 84.9802 166.762 85.1182 167.626 85.1182C168.43 85.1182 169.12 85.0282 169.696 84.8482C170.284 84.6562 170.788 84.4522 171.208 84.2362C171.628 84.0202 171.976 83.8222 172.252 83.6422C172.54 83.4502 172.786 83.3542 172.99 83.3542C173.254 83.3542 173.458 83.4562 173.602 83.6602L174.502 84.8302ZM203.173 74.4982C203.173 76.4302 202.867 78.2062 202.255 79.8262C201.643 81.4342 200.779 82.8202 199.663 83.9842C198.547 85.1482 197.203 86.0542 195.631 86.7022C194.071 87.3382 192.343 87.6562 190.447 87.6562C188.551 87.6562 186.823 87.3382 185.263 86.7022C183.703 86.0542 182.365 85.1482 181.249 83.9842C180.133 82.8202 179.269 81.4342 178.657 79.8262C178.045 78.2062 177.739 76.4302 177.739 74.4982C177.739 72.5662 178.045 70.7962 178.657 69.1882C179.269 67.5682 180.133 66.1762 181.249 65.0122C182.365 63.8362 183.703 62.9242 185.263 62.2762C186.823 61.6282 188.551 61.3042 190.447 61.3042C192.343 61.3042 194.071 61.6282 195.631 62.2762C197.203 62.9242 198.547 63.8362 199.663 65.0122C200.779 66.1762 201.643 67.5682 202.255 69.1882C202.867 70.7962 203.173 72.5662 203.173 74.4982ZM199.591 74.4982C199.591 72.9142 199.375 71.4922 198.943 70.2322C198.511 68.9722 197.899 67.9102 197.107 67.0462C196.315 66.1702 195.355 65.4982 194.227 65.0302C193.099 64.5622 191.839 64.3282 190.447 64.3282C189.067 64.3282 187.813 64.5622 186.685 65.0302C185.557 65.4982 184.591 66.1702 183.787 67.0462C182.995 67.9102 182.383 68.9722 181.951 70.2322C181.519 71.4922 181.303 72.9142 181.303 74.4982C181.303 76.0822 181.519 77.5042 181.951 78.7642C182.383 80.0122 182.995 81.0742 183.787 81.9502C184.591 82.8142 185.557 83.4802 186.685 83.9482C187.813 84.4042 189.067 84.6322 190.447 84.6322C191.839 84.6322 193.099 84.4042 194.227 83.9482C195.355 83.4802 196.315 82.8142 197.107 81.9502C197.899 81.0742 198.511 80.0122 198.943 78.7642C199.375 77.5042 199.591 76.0822 199.591 74.4982ZM210.085 71.7982C210.481 71.3542 210.901 70.9522 211.345 70.5922C211.789 70.2322 212.257 69.9262 212.749 69.6742C213.253 69.4102 213.781 69.2122 214.333 69.0802C214.897 68.9362 215.503 68.8642 216.151 68.8642C217.147 68.8642 218.023 69.0322 218.779 69.3682C219.547 69.6922 220.183 70.1602 220.687 70.7722C221.203 71.3722 221.593 72.0982 221.857 72.9502C222.121 73.8022 222.253 74.7442 222.253 75.7762V87.3862H219.031V75.7762C219.031 74.3962 218.713 73.3282 218.077 72.5722C217.453 71.8042 216.499 71.4202 215.215 71.4202C214.267 71.4202 213.379 71.6482 212.551 72.1042C211.735 72.5602 210.979 73.1782 210.283 73.9582V87.3862H207.061V69.1522H208.987C209.443 69.1522 209.725 69.3742 209.833 69.8182L210.085 71.7982Z" fill="white"/>
<g filter="url(#filter1_d_101_194)">
<path d="M53.5769 46.3172L76 60.2192V85.7808L53.5769 99.6828L32 85.7808V60.2192L53.5769 46.3172Z" fill="white"/>
<path d="M53.5769 46.3172L76 60.2192V85.7808L53.5769 99.6828L32 85.7808V60.2192L53.5769 46.3172Z" stroke="white" stroke-width="3"/>
</g>
<path d="M39.4029 66.3293V61.3604L39.9777 64.6591L46.0995 65.4524L43.053 66.7886L39.4029 66.3293Z" fill="#212529" stroke="#212529"/>
<path d="M67.559 66.3293V61.3604L66.9842 64.6591L60.8624 65.4524L63.9089 66.7886L67.559 66.3293Z" fill="#212529" stroke="#212529"/>
<path d="M34 71.9838L39.4029 57.3931V61.4045L37.6146 69.8239L44.6917 73.7911L46.7844 71.1904L45.2624 74.0115L50.5132 90.1451H53.519V93.2748H50.6654L48.8771 95.6552L42.561 76.7886L34 71.9838Z" fill="#212529" stroke="#212529"/>
<path d="M73 71.9838L67.5971 57.3931V61.4045L69.3854 69.8239L62.3083 73.7911L60.2156 71.1904L61.7376 74.0115L56.4868 90.1451H53.481V93.2748H56.3346L58.1229 95.6552L64.439 76.7886L73 71.9838Z" fill="#212529" stroke="#212529"/>
<path d="M39.4029 65.3224V60.3535L39.9777 63.6522L46.0995 64.4455L43.053 65.7817L39.4029 65.3224Z" fill="#212529" stroke="#212529"/>
<path d="M67.559 65.3224V60.3535L66.9842 63.6522L60.8624 64.4455L63.9089 65.7817L67.559 65.3224Z" fill="#212529" stroke="#212529"/>
<path d="M34 70.9769L39.4029 56.3862V60.3975L37.6146 68.817L44.6917 72.7842L46.7844 70.1835L45.2624 73.0046L50.5132 89.1382H53.519V92.2679H50.6654L48.8771 94.6483L42.561 75.7817L34 70.9769Z" fill="#212529" stroke="#212529"/>
<path d="M73 70.9769L67.5971 56.3862V60.3975L69.3854 68.817L62.3083 72.7842L60.2156 70.1835L61.7376 73.0046L56.4868 89.1382H53.481V92.2679H56.3346L58.1229 94.6483L64.439 75.7817L73 70.9769Z" fill="#212529" stroke="#212529"/>
<defs>
<filter id="filter0_d_101_194" x="27" y="45.1343" width="54" height="63.7315" filterUnits="userSpaceOnUse" color-interpolation-filters="sRGB">
<feFlood flood-opacity="0" result="BackgroundImageFix"/>
<feColorMatrix in="SourceAlpha" type="matrix" values="0 0 0 0 0 0 0 0 0 0 0 0 0 0 0 0 0 0 127 0" result="hardAlpha"/>
<feOffset dy="4"/>
<feGaussianBlur stdDeviation="2"/>
<feComposite in2="hardAlpha" operator="out"/>
<feColorMatrix type="matrix" values="0 0 0 0 0 0 0 0 0 0 0 0 0 0 0 0 0 0 0.25 0"/>
<feBlend mode="normal" in2="BackgroundImageFix" result="effect1_dropShadow_101_194"/>
<feBlend mode="normal" in="SourceGraphic" in2="effect1_dropShadow_101_194" result="shape"/>
</filter>
<filter id="filter1_d_101_194" x="26.5" y="44.5428" width="55" height="64.9144" filterUnits="userSpaceOnUse" color-interpolation-filters="sRGB">
<feFlood flood-opacity="0" result="BackgroundImageFix"/>
<feColorMatrix in="SourceAlpha" type="matrix" values="0 0 0 0 0 0 0 0 0 0 0 0 0 0 0 0 0 0 127 0" result="hardAlpha"/>
<feOffset dy="4"/>
<feGaussianBlur stdDeviation="2"/>
<feComposite in2="hardAlpha" operator="out"/>
<feColorMatrix type="matrix" values="0 0 0 0 0 0 0 0 0 0 0 0 0 0 0 0 0 0 0.25 0"/>
<feBlend mode="normal" in2="BackgroundImageFix" result="effect1_dropShadow_101_194"/>
<feBlend mode="normal" in="SourceGraphic" in2="effect1_dropShadow_101_194" result="shape"/>
</filter>
</defs>
</svg>
