<svg width="216" height="82" viewBox="0 0 216 82" fill="none" xmlns="http://www.w3.org/2000/svg">
<g filter="url(#filter0_d_102_290)">
<path d="M34.9327 2L65 20.2353V53.7647L34.9327 72L6 53.7647V20.2353L34.9327 2Z" fill="white"/>
<path d="M34.9327 2L65 20.2353V53.7647L34.9327 72L6 53.7647V20.2353L34.9327 2Z" stroke="white" stroke-width="2"/>
</g>
<g filter="url(#filter1_d_102_290)">
<path d="M34.9327 2L65 20.2353V53.7647L34.9327 72L6 53.7647V20.2353L34.9327 2Z" fill="white"/>
<path d="M34.9327 2L65 20.2353V53.7647L34.9327 72L6 53.7647V20.2353L34.9327 2Z" stroke="white" stroke-width="3"/>
</g>
<path d="M16 28.4077V22L16.7725 26.2538L25 27.2769L20.9056 29L16 28.4077Z" fill="#212529" stroke="#212529"/>
<path d="M53 28.4077V22L52.2275 26.2538L44 27.2769L48.0944 29L53 28.4077Z" fill="#212529" stroke="#212529"/>
<path d="M8 36.0668L15.4737 17V22.2419L13 33.2442L22.7895 38.4286L25.6842 35.03L23.5789 38.7166L30.8421 59.7995H35V63.8894H31.0526L28.5789 67L19.8421 42.3456L8 36.0668Z" fill="#212529" stroke="#212529"/>
<path d="M61 36.0668L53.5263 17V22.2419L56 33.2442L46.2105 38.4286L43.3158 35.03L45.4211 38.7166L38.1579 59.7995H34V63.8894H37.9474L40.4211 67L49.1579 42.3456L61 36.0668Z" fill="#212529" stroke="#212529"/>
<path d="M16 27.3231V20L16.7725 24.8615L25 26.0308L20.9056 28L16 27.3231Z" fill="#212529" stroke="#212529"/>
<path d="M53 27.3231V20L52.2275 24.8615L44 26.0308L48.0944 28L53 27.3231Z" fill="#212529" stroke="#212529"/>
<path d="M8 34.4482L15.4737 15V20.3468L13 31.5691L22.7895 36.8571L25.6842 33.3906L23.5789 37.1509L30.8421 58.6555H35V62.8272H31.0526L28.5789 66L19.8421 40.8525L8 34.4482Z" fill="#212529" stroke="#212529"/>
<path d="M61 34.4482L53.5263 15V20.3468L56 31.5691L46.2105 36.8571L43.3158 33.3906L45.4211 37.1509L38.1579 58.6555H34V62.8272H37.9474L40.4211 66L49.1579 40.8525L61 34.4482Z" fill="#212529" stroke="#212529"/>
<path d="M96.736 24.14H88.384V47H84.91V24.14H76.54V21.206H96.736V24.14ZM98.8769 32.42C99.4529 31.172 100.161 30.2 101.001 29.504C101.841 28.796 102.867 28.442 104.079 28.442C104.463 28.442 104.829 28.484 105.177 28.568C105.537 28.652 105.855 28.784 106.131 28.964L105.897 31.358C105.825 31.658 105.645 31.808 105.357 31.808C105.189 31.808 104.943 31.772 104.619 31.7C104.295 31.628 103.929 31.592 103.521 31.592C102.945 31.592 102.429 31.676 101.973 31.844C101.529 32.012 101.127 32.264 100.767 32.6C100.419 32.924 100.101 33.332 99.8129 33.824C99.5369 34.304 99.2849 34.856 99.0569 35.48V47H95.8349V28.766H97.6709C98.0189 28.766 98.2589 28.832 98.3909 28.964C98.5229 29.096 98.6129 29.324 98.6609 29.648L98.8769 32.42ZM118.549 38.792C117.073 38.84 115.813 38.96 114.769 39.152C113.737 39.332 112.891 39.572 112.231 39.872C111.583 40.172 111.109 40.526 110.809 40.934C110.521 41.342 110.377 41.798 110.377 42.302C110.377 42.782 110.455 43.196 110.611 43.544C110.767 43.892 110.977 44.18 111.241 44.408C111.517 44.624 111.835 44.786 112.195 44.894C112.567 44.99 112.963 45.038 113.383 45.038C113.947 45.038 114.463 44.984 114.931 44.876C115.399 44.756 115.837 44.588 116.245 44.372C116.665 44.156 117.061 43.898 117.433 43.598C117.817 43.298 118.189 42.956 118.549 42.572V38.792ZM108.199 31.34C109.207 30.368 110.293 29.642 111.457 29.162C112.621 28.682 113.911 28.442 115.327 28.442C116.347 28.442 117.253 28.61 118.045 28.946C118.837 29.282 119.503 29.75 120.043 30.35C120.583 30.95 120.991 31.676 121.267 32.528C121.543 33.38 121.681 34.316 121.681 35.336V47H120.259C119.947 47 119.707 46.952 119.539 46.856C119.371 46.748 119.239 46.544 119.143 46.244L118.783 44.516C118.303 44.96 117.835 45.356 117.379 45.704C116.923 46.04 116.443 46.328 115.939 46.568C115.435 46.796 114.895 46.97 114.319 47.09C113.755 47.222 113.125 47.288 112.429 47.288C111.721 47.288 111.055 47.192 110.431 47C109.807 46.796 109.261 46.496 108.793 46.1C108.337 45.704 107.971 45.206 107.695 44.606C107.431 43.994 107.299 43.274 107.299 42.446C107.299 41.726 107.497 41.036 107.893 40.376C108.289 39.704 108.931 39.11 109.819 38.594C110.707 38.078 111.865 37.658 113.293 37.334C114.721 36.998 116.473 36.806 118.549 36.758V35.336C118.549 33.92 118.243 32.852 117.631 32.132C117.019 31.4 116.125 31.034 114.949 31.034C114.157 31.034 113.491 31.136 112.951 31.34C112.423 31.532 111.961 31.754 111.565 32.006C111.181 32.246 110.845 32.468 110.557 32.672C110.281 32.864 110.005 32.96 109.729 32.96C109.513 32.96 109.327 32.906 109.171 32.798C109.015 32.678 108.883 32.534 108.775 32.366L108.199 31.34ZM138.441 33.104C137.841 32.3 137.193 31.742 136.497 31.43C135.801 31.106 135.021 30.944 134.157 30.944C132.465 30.944 131.163 31.55 130.251 32.762C129.339 33.974 128.883 35.702 128.883 37.946C128.883 39.134 128.985 40.154 129.189 41.006C129.393 41.846 129.693 42.542 130.089 43.094C130.485 43.634 130.971 44.03 131.547 44.282C132.123 44.534 132.777 44.66 133.509 44.66C134.565 44.66 135.483 44.42 136.263 43.94C137.055 43.46 137.781 42.782 138.441 41.906V33.104ZM141.645 20.486V47H139.737C139.281 47 138.993 46.778 138.873 46.334L138.585 44.12C137.805 45.056 136.917 45.812 135.921 46.388C134.925 46.964 133.773 47.252 132.465 47.252C131.421 47.252 130.473 47.054 129.621 46.658C128.769 46.25 128.043 45.656 127.443 44.876C126.843 44.096 126.381 43.124 126.057 41.96C125.733 40.796 125.571 39.458 125.571 37.946C125.571 36.602 125.751 35.354 126.111 34.202C126.471 33.038 126.987 32.03 127.659 31.178C128.331 30.326 129.153 29.66 130.125 29.18C131.109 28.688 132.213 28.442 133.437 28.442C134.553 28.442 135.507 28.634 136.299 29.018C137.103 29.39 137.817 29.912 138.441 30.584V20.486H141.645ZM158.91 35.894C158.91 35.15 158.802 34.472 158.586 33.86C158.382 33.236 158.076 32.702 157.668 32.258C157.272 31.802 156.786 31.454 156.21 31.214C155.634 30.962 154.98 30.836 154.248 30.836C152.712 30.836 151.494 31.286 150.594 32.186C149.706 33.074 149.154 34.31 148.938 35.894H158.91ZM161.502 44.444C161.106 44.924 160.632 45.344 160.08 45.704C159.528 46.052 158.934 46.34 158.298 46.568C157.674 46.796 157.026 46.964 156.354 47.072C155.682 47.192 155.016 47.252 154.356 47.252C153.096 47.252 151.932 47.042 150.864 46.622C149.808 46.19 148.89 45.566 148.11 44.75C147.342 43.922 146.742 42.902 146.31 41.69C145.878 40.478 145.662 39.086 145.662 37.514C145.662 36.242 145.854 35.054 146.238 33.95C146.634 32.846 147.198 31.892 147.93 31.088C148.662 30.272 149.556 29.636 150.612 29.18C151.668 28.712 152.856 28.478 154.176 28.478C155.268 28.478 156.276 28.664 157.2 29.036C158.136 29.396 158.94 29.924 159.612 30.62C160.296 31.304 160.83 32.156 161.214 33.176C161.598 34.184 161.79 35.336 161.79 36.632C161.79 37.136 161.736 37.472 161.628 37.64C161.52 37.808 161.316 37.892 161.016 37.892H148.83C148.866 39.044 149.022 40.046 149.298 40.898C149.586 41.75 149.982 42.464 150.486 43.04C150.99 43.604 151.59 44.03 152.286 44.318C152.982 44.594 153.762 44.732 154.626 44.732C155.43 44.732 156.12 44.642 156.696 44.462C157.284 44.27 157.788 44.066 158.208 43.85C158.628 43.634 158.976 43.436 159.252 43.256C159.54 43.064 159.786 42.968 159.99 42.968C160.254 42.968 160.458 43.07 160.602 43.274L161.502 44.444ZM190.173 34.112C190.173 36.044 189.867 37.82 189.255 39.44C188.643 41.048 187.779 42.434 186.663 43.598C185.547 44.762 184.203 45.668 182.631 46.316C181.071 46.952 179.343 47.27 177.447 47.27C175.551 47.27 173.823 46.952 172.263 46.316C170.703 45.668 169.365 44.762 168.249 43.598C167.133 42.434 166.269 41.048 165.657 39.44C165.045 37.82 164.739 36.044 164.739 34.112C164.739 32.18 165.045 30.41 165.657 28.802C166.269 27.182 167.133 25.79 168.249 24.626C169.365 23.45 170.703 22.538 172.263 21.89C173.823 21.242 175.551 20.918 177.447 20.918C179.343 20.918 181.071 21.242 182.631 21.89C184.203 22.538 185.547 23.45 186.663 24.626C187.779 25.79 188.643 27.182 189.255 28.802C189.867 30.41 190.173 32.18 190.173 34.112ZM186.591 34.112C186.591 32.528 186.375 31.106 185.943 29.846C185.511 28.586 184.899 27.524 184.107 26.66C183.315 25.784 182.355 25.112 181.227 24.644C180.099 24.176 178.839 23.942 177.447 23.942C176.067 23.942 174.813 24.176 173.685 24.644C172.557 25.112 171.591 25.784 170.787 26.66C169.995 27.524 169.383 28.586 168.951 29.846C168.519 31.106 168.303 32.528 168.303 34.112C168.303 35.696 168.519 37.118 168.951 38.378C169.383 39.626 169.995 40.688 170.787 41.564C171.591 42.428 172.557 43.094 173.685 43.562C174.813 44.018 176.067 44.246 177.447 44.246C178.839 44.246 180.099 44.018 181.227 43.562C182.355 43.094 183.315 42.428 184.107 41.564C184.899 40.688 185.511 39.626 185.943 38.378C186.375 37.118 186.591 35.696 186.591 34.112ZM197.085 31.412C197.481 30.968 197.901 30.566 198.345 30.206C198.789 29.846 199.257 29.54 199.749 29.288C200.253 29.024 200.781 28.826 201.333 28.694C201.897 28.55 202.503 28.478 203.151 28.478C204.147 28.478 205.023 28.646 205.779 28.982C206.547 29.306 207.183 29.774 207.687 30.386C208.203 30.986 208.593 31.712 208.857 32.564C209.121 33.416 209.253 34.358 209.253 35.39V47H206.031V35.39C206.031 34.01 205.713 32.942 205.077 32.186C204.453 31.418 203.499 31.034 202.215 31.034C201.267 31.034 200.379 31.262 199.551 31.718C198.735 32.174 197.979 32.792 197.283 33.572V47H194.061V28.766H195.987C196.443 28.766 196.725 28.988 196.833 29.432L197.085 31.412Z" fill="white"/>
<defs>
<filter id="filter0_d_102_290" x="1" y="0.824341" width="69" height="80.3513" filterUnits="userSpaceOnUse" color-interpolation-filters="sRGB">
<feFlood flood-opacity="0" result="BackgroundImageFix"/>
<feColorMatrix in="SourceAlpha" type="matrix" values="0 0 0 0 0 0 0 0 0 0 0 0 0 0 0 0 0 0 127 0" result="hardAlpha"/>
<feOffset dy="4"/>
<feGaussianBlur stdDeviation="2"/>
<feComposite in2="hardAlpha" operator="out"/>
<feColorMatrix type="matrix" values="0 0 0 0 0 0 0 0 0 0 0 0 0 0 0 0 0 0 0.25 0"/>
<feBlend mode="normal" in2="BackgroundImageFix" result="effect1_dropShadow_102_290"/>
<feBlend mode="normal" in="SourceGraphic" in2="effect1_dropShadow_102_290" result="shape"/>
</filter>
<filter id="filter1_d_102_290" x="0.5" y="0.236481" width="70" height="81.527" filterUnits="userSpaceOnUse" color-interpolation-filters="sRGB">
<feFlood flood-opacity="0" result="BackgroundImageFix"/>
<feColorMatrix in="SourceAlpha" type="matrix" values="0 0 0 0 0 0 0 0 0 0 0 0 0 0 0 0 0 0 127 0" result="hardAlpha"/>
<feOffset dy="4"/>
<feGaussianBlur stdDeviation="2"/>
<feComposite in2="hardAlpha" operator="out"/>
<feColorMatrix type="matrix" values="0 0 0 0 0 0 0 0 0 0 0 0 0 0 0 0 0 0 0.25 0"/>
<feBlend mode="normal" in2="BackgroundImageFix" result="effect1_dropShadow_102_290"/>
<feBlend mode="normal" in="SourceGraphic" in2="effect1_dropShadow_102_290" result="shape"/>
</filter>
</defs>
</svg>
