<svg width="140" height="128" viewBox="0 0 140 128" fill="none" xmlns="http://www.w3.org/2000/svg">
<g filter="url(#filter0_d_102_290)">
<path d="M67.9494 2L98.0167 20.2353V53.7647L67.9494 72L39.0167 53.7647V20.2353L67.9494 2Z" fill="white"/>
<path d="M67.9494 2L98.0167 20.2353V53.7647L67.9494 72L39.0167 53.7647V20.2353L67.9494 2Z" stroke="white" stroke-width="2"/>
</g>
<g filter="url(#filter1_d_102_290)">
<path d="M67.9494 2L98.0167 20.2353V53.7647L67.9494 72L39.0167 53.7647V20.2353L67.9494 2Z" fill="white"/>
<path d="M67.9494 2L98.0167 20.2353V53.7647L67.9494 72L39.0167 53.7647V20.2353L67.9494 2Z" stroke="white" stroke-width="3"/>
</g>
<path d="M49.0167 28.4077V22L49.7892 26.2538L58.0167 27.2769L53.9222 29L49.0167 28.4077Z" fill="#212529" stroke="#212529"/>
<path d="M86.0167 28.4077V22L85.2441 26.2538L77.0167 27.2769L81.1111 29L86.0167 28.4077Z" fill="#212529" stroke="#212529"/>
<path d="M41.0167 36.0668L48.4903 17V22.2419L46.0167 33.2442L55.8061 38.4286L58.7009 35.03L56.5956 38.7166L63.8588 59.7995H68.0167V63.8894H64.0693L61.5956 67L52.8588 42.3456L41.0167 36.0668Z" fill="#212529" stroke="#212529"/>
<path d="M94.0167 36.0668L86.543 17V22.2419L89.0167 33.2442L79.2272 38.4286L76.3325 35.03L78.4377 38.7166L71.1746 59.7995H67.0167V63.8894H70.964L73.4377 67L82.1746 42.3456L94.0167 36.0668Z" fill="#212529" stroke="#212529"/>
<path d="M49.0167 27.3231V20L49.7892 24.8615L58.0167 26.0308L53.9222 28L49.0167 27.3231Z" fill="#212529" stroke="#212529"/>
<path d="M86.0167 27.3231V20L85.2441 24.8615L77.0167 26.0308L81.1111 28L86.0167 27.3231Z" fill="#212529" stroke="#212529"/>
<path d="M41.0167 34.4482L48.4903 15V20.3468L46.0167 31.5691L55.8061 36.8571L58.7009 33.3906L56.5956 37.1509L63.8588 58.6555H68.0167V62.8272H64.0693L61.5956 66L52.8588 40.8525L41.0167 34.4482Z" fill="#212529" stroke="#212529"/>
<path d="M94.0167 34.4482L86.543 15V20.3468L89.0167 31.5691L79.2272 36.8571L76.3325 33.3906L78.4377 37.1509L71.1746 58.6555H67.0167V62.8272H70.964L73.4377 66L82.1746 40.8525L94.0167 34.4482Z" fill="#212529" stroke="#212529"/>
<path d="M20.736 93.14H12.384V116H8.91V93.14H0.54V90.206H20.736V93.14ZM22.8769 101.42C23.4529 100.172 24.1609 99.2 25.0009 98.504C25.8409 97.796 26.8669 97.442 28.0789 97.442C28.4629 97.442 28.8289 97.484 29.1769 97.568C29.5369 97.652 29.8549 97.784 30.1309 97.964L29.8969 100.358C29.8249 100.658 29.6449 100.808 29.3569 100.808C29.1889 100.808 28.9429 100.772 28.6189 100.7C28.2949 100.628 27.9289 100.592 27.5209 100.592C26.9449 100.592 26.4289 100.676 25.9729 100.844C25.5289 101.012 25.1269 101.264 24.7669 101.6C24.4189 101.924 24.1009 102.332 23.8129 102.824C23.5369 103.304 23.2849 103.856 23.0569 104.48V116H19.8349V97.766H21.6709C22.0189 97.766 22.2589 97.832 22.3909 97.964C22.5229 98.096 22.6129 98.324 22.6609 98.648L22.8769 101.42ZM42.5489 107.792C41.0729 107.84 39.8129 107.96 38.7689 108.152C37.7369 108.332 36.8909 108.572 36.2309 108.872C35.5829 109.172 35.1089 109.526 34.8089 109.934C34.5209 110.342 34.3769 110.798 34.3769 111.302C34.3769 111.782 34.4549 112.196 34.6109 112.544C34.7669 112.892 34.9769 113.18 35.2409 113.408C35.5169 113.624 35.8349 113.786 36.1949 113.894C36.5669 113.99 36.9629 114.038 37.3829 114.038C37.9469 114.038 38.4629 113.984 38.9309 113.876C39.3989 113.756 39.8369 113.588 40.2449 113.372C40.6649 113.156 41.0609 112.898 41.4329 112.598C41.8169 112.298 42.1889 111.956 42.5489 111.572V107.792ZM32.1989 100.34C33.2069 99.368 34.2929 98.642 35.4569 98.162C36.6209 97.682 37.9109 97.442 39.3269 97.442C40.3469 97.442 41.2529 97.61 42.0449 97.946C42.8369 98.282 43.5029 98.75 44.0429 99.35C44.5829 99.95 44.9909 100.676 45.2669 101.528C45.5429 102.38 45.6809 103.316 45.6809 104.336V116H44.2589C43.9469 116 43.7069 115.952 43.5389 115.856C43.3709 115.748 43.2389 115.544 43.1429 115.244L42.7829 113.516C42.3029 113.96 41.8349 114.356 41.3789 114.704C40.9229 115.04 40.4429 115.328 39.9389 115.568C39.4349 115.796 38.8949 115.97 38.3189 116.09C37.7549 116.222 37.1249 116.288 36.4289 116.288C35.7209 116.288 35.0549 116.192 34.4309 116C33.8069 115.796 33.2609 115.496 32.7929 115.1C32.3369 114.704 31.9709 114.206 31.6949 113.606C31.4309 112.994 31.2989 112.274 31.2989 111.446C31.2989 110.726 31.4969 110.036 31.8929 109.376C32.2889 108.704 32.9309 108.11 33.8189 107.594C34.7069 107.078 35.8649 106.658 37.2929 106.334C38.7209 105.998 40.4729 105.806 42.5489 105.758V104.336C42.5489 102.92 42.2429 101.852 41.6309 101.132C41.0189 100.4 40.1249 100.034 38.9489 100.034C38.1569 100.034 37.4909 100.136 36.9509 100.34C36.4229 100.532 35.9609 100.754 35.5649 101.006C35.1809 101.246 34.8449 101.468 34.5569 101.672C34.2809 101.864 34.0049 101.96 33.7289 101.96C33.5129 101.96 33.3269 101.906 33.1709 101.798C33.0149 101.678 32.8829 101.534 32.7749 101.366L32.1989 100.34ZM62.4414 102.104C61.8414 101.3 61.1934 100.742 60.4974 100.43C59.8014 100.106 59.0214 99.944 58.1574 99.944C56.4654 99.944 55.1634 100.55 54.2514 101.762C53.3394 102.974 52.8834 104.702 52.8834 106.946C52.8834 108.134 52.9854 109.154 53.1894 110.006C53.3934 110.846 53.6934 111.542 54.0894 112.094C54.4854 112.634 54.9714 113.03 55.5474 113.282C56.1234 113.534 56.7774 113.66 57.5094 113.66C58.5654 113.66 59.4834 113.42 60.2634 112.94C61.0554 112.46 61.7814 111.782 62.4414 110.906V102.104ZM65.6454 89.486V116H63.7374C63.2814 116 62.9934 115.778 62.8734 115.334L62.5854 113.12C61.8054 114.056 60.9174 114.812 59.9214 115.388C58.9254 115.964 57.7734 116.252 56.4654 116.252C55.4214 116.252 54.4734 116.054 53.6214 115.658C52.7694 115.25 52.0434 114.656 51.4434 113.876C50.8434 113.096 50.3814 112.124 50.0574 110.96C49.7334 109.796 49.5714 108.458 49.5714 106.946C49.5714 105.602 49.7514 104.354 50.1114 103.202C50.4714 102.038 50.9874 101.03 51.6594 100.178C52.3314 99.326 53.1534 98.66 54.1254 98.18C55.1094 97.688 56.2134 97.442 57.4374 97.442C58.5534 97.442 59.5074 97.634 60.2994 98.018C61.1034 98.39 61.8174 98.912 62.4414 99.584V89.486H65.6454ZM82.91 104.894C82.91 104.15 82.802 103.472 82.586 102.86C82.382 102.236 82.076 101.702 81.668 101.258C81.272 100.802 80.786 100.454 80.21 100.214C79.634 99.962 78.98 99.836 78.248 99.836C76.712 99.836 75.494 100.286 74.594 101.186C73.706 102.074 73.154 103.31 72.938 104.894H82.91ZM85.502 113.444C85.106 113.924 84.632 114.344 84.08 114.704C83.528 115.052 82.934 115.34 82.298 115.568C81.674 115.796 81.026 115.964 80.354 116.072C79.682 116.192 79.016 116.252 78.356 116.252C77.096 116.252 75.932 116.042 74.864 115.622C73.808 115.19 72.89 114.566 72.11 113.75C71.342 112.922 70.742 111.902 70.31 110.69C69.878 109.478 69.662 108.086 69.662 106.514C69.662 105.242 69.854 104.054 70.238 102.95C70.634 101.846 71.198 100.892 71.93 100.088C72.662 99.272 73.556 98.636 74.612 98.18C75.668 97.712 76.856 97.478 78.176 97.478C79.268 97.478 80.276 97.664 81.2 98.036C82.136 98.396 82.94 98.924 83.612 99.62C84.296 100.304 84.83 101.156 85.214 102.176C85.598 103.184 85.79 104.336 85.79 105.632C85.79 106.136 85.736 106.472 85.628 106.64C85.52 106.808 85.316 106.892 85.016 106.892H72.83C72.866 108.044 73.022 109.046 73.298 109.898C73.586 110.75 73.982 111.464 74.486 112.04C74.99 112.604 75.59 113.03 76.286 113.318C76.982 113.594 77.762 113.732 78.626 113.732C79.43 113.732 80.12 113.642 80.696 113.462C81.284 113.27 81.788 113.066 82.208 112.85C82.628 112.634 82.976 112.436 83.252 112.256C83.54 112.064 83.786 111.968 83.99 111.968C84.254 111.968 84.458 112.07 84.602 112.274L85.502 113.444ZM114.173 103.112C114.173 105.044 113.867 106.82 113.255 108.44C112.643 110.048 111.779 111.434 110.663 112.598C109.547 113.762 108.203 114.668 106.631 115.316C105.071 115.952 103.343 116.27 101.447 116.27C99.5509 116.27 97.8229 115.952 96.2629 115.316C94.7029 114.668 93.3649 113.762 92.2489 112.598C91.1329 111.434 90.2689 110.048 89.6569 108.44C89.0449 106.82 88.7389 105.044 88.7389 103.112C88.7389 101.18 89.0449 99.41 89.6569 97.802C90.2689 96.182 91.1329 94.79 92.2489 93.626C93.3649 92.45 94.7029 91.538 96.2629 90.89C97.8229 90.242 99.5509 89.918 101.447 89.918C103.343 89.918 105.071 90.242 106.631 90.89C108.203 91.538 109.547 92.45 110.663 93.626C111.779 94.79 112.643 96.182 113.255 97.802C113.867 99.41 114.173 101.18 114.173 103.112ZM110.591 103.112C110.591 101.528 110.375 100.106 109.943 98.846C109.511 97.586 108.899 96.524 108.107 95.66C107.315 94.784 106.355 94.112 105.227 93.644C104.099 93.176 102.839 92.942 101.447 92.942C100.067 92.942 98.8129 93.176 97.6849 93.644C96.5569 94.112 95.5909 94.784 94.7869 95.66C93.9949 96.524 93.3829 97.586 92.9509 98.846C92.5189 100.106 92.3029 101.528 92.3029 103.112C92.3029 104.696 92.5189 106.118 92.9509 107.378C93.3829 108.626 93.9949 109.688 94.7869 110.564C95.5909 111.428 96.5569 112.094 97.6849 112.562C98.8129 113.018 100.067 113.246 101.447 113.246C102.839 113.246 104.099 113.018 105.227 112.562C106.355 112.094 107.315 111.428 108.107 110.564C108.899 109.688 109.511 108.626 109.943 107.378C110.375 106.118 110.591 104.696 110.591 103.112ZM121.085 100.412C121.481 99.968 121.901 99.566 122.345 99.206C122.789 98.846 123.257 98.54 123.749 98.288C124.253 98.024 124.781 97.826 125.333 97.694C125.897 97.55 126.503 97.478 127.151 97.478C128.147 97.478 129.023 97.646 129.779 97.982C130.547 98.306 131.183 98.774 131.687 99.386C132.203 99.986 132.593 100.712 132.857 101.564C133.121 102.416 133.253 103.358 133.253 104.39V116H130.031V104.39C130.031 103.01 129.713 101.942 129.077 101.186C128.453 100.418 127.499 100.034 126.215 100.034C125.267 100.034 124.379 100.262 123.551 100.718C122.735 101.174 121.979 101.792 121.283 102.572V116H118.061V97.766H119.987C120.443 97.766 120.725 97.988 120.833 98.432L121.085 100.412Z" fill="white"/>
<defs>
<filter id="filter0_d_102_290" x="34.0167" y="0.824341" width="69" height="80.3513" filterUnits="userSpaceOnUse" color-interpolation-filters="sRGB">
<feFlood flood-opacity="0" result="BackgroundImageFix"/>
<feColorMatrix in="SourceAlpha" type="matrix" values="0 0 0 0 0 0 0 0 0 0 0 0 0 0 0 0 0 0 127 0" result="hardAlpha"/>
<feOffset dy="4"/>
<feGaussianBlur stdDeviation="2"/>
<feComposite in2="hardAlpha" operator="out"/>
<feColorMatrix type="matrix" values="0 0 0 0 0 0 0 0 0 0 0 0 0 0 0 0 0 0 0.25 0"/>
<feBlend mode="normal" in2="BackgroundImageFix" result="effect1_dropShadow_102_290"/>
<feBlend mode="normal" in="SourceGraphic" in2="effect1_dropShadow_102_290" result="shape"/>
</filter>
<filter id="filter1_d_102_290" x="33.5167" y="0.236481" width="70" height="81.527" filterUnits="userSpaceOnUse" color-interpolation-filters="sRGB">
<feFlood flood-opacity="0" result="BackgroundImageFix"/>
<feColorMatrix in="SourceAlpha" type="matrix" values="0 0 0 0 0 0 0 0 0 0 0 0 0 0 0 0 0 0 127 0" result="hardAlpha"/>
<feOffset dy="4"/>
<feGaussianBlur stdDeviation="2"/>
<feComposite in2="hardAlpha" operator="out"/>
<feColorMatrix type="matrix" values="0 0 0 0 0 0 0 0 0 0 0 0 0 0 0 0 0 0 0.25 0"/>
<feBlend mode="normal" in2="BackgroundImageFix" result="effect1_dropShadow_102_290"/>
<feBlend mode="normal" in="SourceGraphic" in2="effect1_dropShadow_102_290" result="shape"/>
</filter>
</defs>
</svg>
